<svg width="143" height="50" viewBox="0 0 143 50" fill="none" xmlns="http://www.w3.org/2000/svg">
<path d="M28 33.817H30.7076V18.1162L28.5662 20.2603C28.3865 20.44 28.244 20.6533 28.1469 20.8881C28.0497 21.1229 27.9998 21.3746 28 21.6287V33.817Z" fill="white"/>
<path d="M37.8174 15.4111H34.2134C33.9588 15.4109 33.7067 15.461 33.4717 15.5587C33.2366 15.6563 33.0231 15.7995 32.8437 15.98L30.7075 18.1174H37.8174V15.4111Z" fill="white"/>
<path d="M105.015 18.1162V15.4113H97.9009V10H95.1959V15.4113H88.8657V18.1162H95.1959V27.2747C95.1948 28.1335 95.3631 28.984 95.691 29.7777C96.0189 30.5714 96.5001 31.2927 97.1069 31.9003C97.7138 32.508 98.4345 32.99 99.2278 33.3189C100.021 33.6477 100.871 33.817 101.73 33.817H104.183V31.112H101.77C101.262 31.112 100.759 31.0119 100.289 30.8174C99.8195 30.6229 99.393 30.3378 99.0336 29.9783C98.6743 29.6189 98.3894 29.1922 98.195 28.7226C98.0006 28.253 97.9007 27.7498 97.9009 27.2415V18.1162H105.015Z" fill="white"/>
<path d="M77.123 15.4111V18.1174H83.4532L81.3171 15.98C81.1375 15.7996 80.924 15.6565 80.689 15.5589C80.4539 15.4613 80.2019 15.411 79.9474 15.4111H77.123Z" fill="white"/>
<path d="M86.1607 31.1054V21.6287C86.1604 21.1156 85.9568 20.6236 85.5945 20.2603L83.4518 18.1162V31.1107H76.3433V33.817H93.2692V31.1054H86.1607Z" fill="white"/>
<path d="M86.1608 10H83.4531V12.7076H86.1608V10Z" fill="white"/>
<path d="M106.753 32.8212L107.735 33.8104H109.409L109.872 31.1028H107.047L106.753 32.8212Z" fill="white"/>
<path d="M110.662 10L107.363 29.2663H110.186L113.487 10H110.662Z" fill="white"/>
<path d="M40.7889 23.2611C40.9984 20.0562 43.279 17.9095 46.4905 17.9095C49.584 17.9095 51.7613 20.0058 52.0596 23.2611H40.7889ZM55.0032 24.6109C55.0032 19.0273 51.5836 15.2761 46.4932 15.2761C41.3034 15.2761 37.8174 19.0273 37.8174 24.6109C37.8174 30.1946 41.3034 33.9497 46.4932 33.9497C49.9407 33.9497 52.6656 32.3466 54.5935 29.1842L54.6426 29.1046L52.2983 27.6142L52.2492 27.7044C50.9232 30.1004 48.986 31.3163 46.4932 31.3163C43.1783 31.3163 40.9241 29.1033 40.7213 25.669H55.0032V24.6109Z" fill="white"/>
<path d="M57.3373 40.0001H60.0409V24.8071V18.115L57.9021 20.2564C57.5396 20.6196 57.336 21.1117 57.3359 21.6248L57.3373 40.0001Z" fill="white"/>
<path d="M67.8824 15.4111H63.5465C63.291 15.4102 63.0379 15.46 62.8019 15.5577C62.5659 15.6553 62.3516 15.7989 62.1714 15.98L60.0366 18.1148H67.8373C68.3466 18.1132 68.8512 18.2122 69.3222 18.4061C69.7932 18.6 70.2213 18.885 70.5819 19.2448C70.9424 19.6045 71.2285 20.0319 71.4235 20.5024C71.6185 20.9729 71.7187 21.4773 71.7184 21.9866V27.2348C71.7184 28.2613 71.3106 29.2458 70.5847 29.9716C69.8589 30.6975 68.8744 31.1053 67.8479 31.1053H60.0499C60.6536 31.9437 61.4478 32.6267 62.3672 33.0982C63.2865 33.5696 64.3047 33.8159 65.3378 33.8169H67.8824C69.6157 33.8169 71.2781 33.1283 72.5038 31.9026C73.7295 30.677 74.4181 29.0146 74.4181 27.2812V21.9468C74.4181 20.2135 73.7295 18.5511 72.5038 17.3254C71.2781 16.0997 69.6157 15.4111 67.8824 15.4111Z" fill="white"/>
</svg>
