<svg width="30" height="30" viewBox="0 0 30 30" fill="none" xmlns="http://www.w3.org/2000/svg">
<path d="M21.7774 8.32631C20.4389 7.71242 19.0036 7.26013 17.5029 7.00109C17.4756 6.99609 17.4483 7.00858 17.4342 7.03357C17.2496 7.36175 17.0451 7.78988 16.902 8.12639C15.2879 7.88484 13.682 7.88484 12.101 8.12639C11.9578 7.7824 11.7459 7.36175 11.5605 7.03357C11.5464 7.00941 11.5191 6.99692 11.4918 7.00109C9.99192 7.2593 8.55662 7.71159 7.21732 8.32631C7.20572 8.33131 7.19579 8.33965 7.18919 8.35047C4.46672 12.4161 3.72092 16.3818 4.08678 20.2983C4.08844 20.3175 4.0992 20.3358 4.1141 20.3475C5.91031 21.666 7.65024 22.4665 9.35787 22.9971C9.3852 23.0054 9.41415 22.9954 9.43155 22.9729C9.83549 22.4215 10.1956 21.8401 10.5043 21.2287C10.5225 21.1929 10.5051 21.1504 10.4679 21.1363C9.89674 20.9197 9.3529 20.6557 8.82976 20.3558C8.78838 20.3317 8.78507 20.2725 8.82314 20.2442C8.93323 20.1617 9.04334 20.0759 9.14846 19.9893C9.16748 19.9735 9.19398 19.9701 9.21634 19.9801C12.6531 21.5486 16.3739 21.5486 19.7701 19.9801C19.7924 19.9693 19.8189 19.9726 19.8388 19.9885C19.9439 20.0751 20.054 20.1617 20.1649 20.2442C20.203 20.2725 20.2005 20.3317 20.1591 20.3558C19.636 20.6615 19.0922 20.9197 18.5202 21.1354C18.483 21.1496 18.4664 21.1929 18.4846 21.2287C18.8 21.8393 19.16 22.4207 19.5565 22.9721C19.5731 22.9954 19.6029 23.0054 19.6302 22.9971C21.3461 22.4665 23.086 21.666 24.8823 20.3475C24.898 20.3358 24.9079 20.3183 24.9096 20.2992C25.3474 15.7712 24.1762 11.838 21.8047 8.3513C21.7989 8.33965 21.789 8.33131 21.7774 8.32631ZM11.0175 17.9136C9.98281 17.9136 9.13024 16.964 9.13024 15.7979C9.13024 14.6317 9.96628 13.6822 11.0175 13.6822C12.077 13.6822 12.9213 14.6401 12.9048 15.7979C12.9048 16.964 12.0687 17.9136 11.0175 17.9136ZM17.9954 17.9136C16.9607 17.9136 16.1082 16.964 16.1082 15.7979C16.1082 14.6317 16.9442 13.6822 17.9954 13.6822C19.0549 13.6822 19.8992 14.6401 19.8827 15.7979C19.8827 16.964 19.0549 17.9136 17.9954 17.9136Z" fill="white"/>
</svg>
