<svg xmlns="http://www.w3.org/2000/svg" width="13" height="13" viewBox="0 0 13 13" fill="none">
<path d="M10.093 0.756836H2.07199C1.54435 0.756836 1.03832 0.969321 0.665223 1.34754C0.292124 1.72577 0.08252 2.23875 0.08252 2.77364V8.74081C0.082358 8.93635 0.120203 9.13002 0.193894 9.31073C0.267585 9.49145 0.375676 9.65567 0.511994 9.79403L3.16778 12.4863C3.30426 12.6245 3.46626 12.7341 3.64453 12.8088C3.8228 12.8835 4.01383 12.9218 4.20673 12.9217H10.093C10.6207 12.9217 11.1267 12.7092 11.4998 12.331C11.8729 11.9527 12.0825 11.4398 12.0825 10.9049V2.77364C12.0825 2.23875 11.8729 1.72577 11.4998 1.34754C11.1267 0.969321 10.6207 0.756836 10.093 0.756836Z" fill="white" style="&#10;    fill: rgb(102,102,102);&#10;"/>
<path d="M5.15942 10.708L5.45048 11.05H5.94667L6.0825 10.1143H5.24536L5.15942 10.708Z" fill="black"/>
<path d="M6.40311 2.62793L5.15942 9.17823H6.22343L7.46712 2.62793H6.40311Z" fill="black"/>
</svg>