<svg width="30" height="30" viewBox="0 0 30 30" fill="none" xmlns="http://www.w3.org/2000/svg">
<path d="M24.2 5H5.8C5.3575 5 5 5.3575 5 5.8V24.2C5 24.6425 5.3575 25 5.8 25H24.2C24.6425 25 25 24.6425 25 24.2V5.8C25 5.3575 24.6425 5 24.2 5ZM10.9325 22.0425H7.965V12.4975H10.9325V22.0425ZM9.45 11.1925C8.5 11.1925 7.73 10.4225 7.73 9.4725C7.73 8.5225 8.5 7.7525 9.45 7.7525C10.3975 7.7525 11.17 8.5225 11.17 9.4725C11.1675 10.4225 10.3975 11.1925 9.45 11.1925ZM22.0425 22.0425H19.0775V17.4C19.0775 16.2925 19.0575 14.87 17.535 14.87C15.9925 14.87 15.755 16.075 15.755 17.32V22.0425H12.7925V12.4975H15.6375V13.8025H15.6775C16.0725 13.0525 17.04 12.26 18.485 12.26C21.49 12.26 22.0425 14.2375 22.0425 16.8075V22.0425V22.0425Z" fill="#0099EF"/>
</svg>
