<svg width="30" height="30" viewBox="0 0 30 30" fill="none" xmlns="http://www.w3.org/2000/svg">
<path d="M11.5365 24C19.3752 24 23.6639 17.4589 23.6639 11.7882C23.6639 11.6044 23.6598 11.4164 23.6517 11.2325C24.486 10.625 25.206 9.87245 25.7778 9.01031C25.0008 9.35841 24.1758 9.58575 23.3311 9.68457C24.2206 9.14771 24.8865 8.30434 25.2056 7.31078C24.3688 7.81012 23.4538 8.16236 22.4996 8.3524C21.8567 7.66454 21.0067 7.20909 20.0809 7.05648C19.1552 6.90386 18.2053 7.06258 17.3781 7.50809C16.551 7.9536 15.8926 8.66109 15.5048 9.52118C15.117 10.3813 15.0213 11.346 15.2326 12.2663C13.5384 12.1807 11.8809 11.7375 10.3676 10.9655C8.8543 10.1935 7.51904 9.10981 6.44836 7.7848C5.90418 8.72956 5.73766 9.84751 5.98264 10.9114C6.22762 11.9754 6.86573 12.9055 7.76726 13.5127C7.09044 13.4911 6.42845 13.3076 5.83598 12.9774V13.0305C5.83537 14.0219 6.17576 14.983 6.79928 15.7503C7.42279 16.5176 8.29096 17.0438 9.2562 17.2395C8.62923 17.4122 7.97121 17.4374 7.33304 17.313C7.60541 18.1657 8.13534 18.9114 8.84889 19.4462C9.56243 19.981 10.424 20.2781 11.3133 20.2961C9.8035 21.4903 7.93848 22.138 6.0186 22.135C5.67812 22.1344 5.33798 22.1134 5 22.072C6.95039 23.332 9.21921 24.0012 11.5365 24Z" fill="white"/>
</svg>
