<svg width="647" height="647" viewBox="0 0 647 647" fill="none" xmlns="http://www.w3.org/2000/svg">
<g clip-path="url(#clip0_134_368)">
<path d="M644.48 323.472H641.903C641.892 397.114 616.348 468.474 569.623 525.394C522.898 582.314 457.883 621.273 385.655 635.633C313.426 649.992 238.453 638.864 173.51 604.144C108.566 569.424 57.6697 513.261 29.4922 445.223C1.31467 377.185 -2.40082 301.481 18.979 231.011C40.3588 160.541 85.5111 99.6638 146.743 58.7516C207.975 17.8394 281.498 -0.576517 354.785 6.64136C428.072 13.8592 496.59 46.2643 548.664 98.3357C578.276 127.866 601.757 162.959 617.758 201.596C633.76 240.233 641.965 281.652 641.903 323.472H647.057C647.057 259.486 628.084 196.937 592.537 143.734C556.99 90.5317 506.465 49.064 447.351 24.5752C388.237 0.0863622 323.189 -6.32401 260.432 6.15477C197.675 18.6336 140.028 49.4416 94.7794 94.6821C49.5309 139.923 18.7133 197.564 6.22341 260.319C-6.26648 323.073 0.132255 388.123 24.6106 447.241C49.0889 506.359 90.5475 556.891 143.744 592.448C196.94 628.005 259.486 646.989 323.471 647C409.276 647 491.567 612.914 552.241 552.241C612.914 491.568 647 409.277 647 323.472H644.48Z" fill="white"/>
<path d="M562.982 323.472H560.462C560.465 378.273 541.466 431.379 506.703 473.743C471.941 516.107 423.565 545.107 369.818 555.803C316.071 566.499 260.278 558.228 211.945 532.4C163.612 506.572 125.729 464.785 104.752 414.158C83.7741 363.531 80.9989 307.197 96.8993 254.753C112.8 202.31 146.392 157.001 191.952 126.548C237.512 96.0948 292.222 82.3806 346.76 87.7421C401.298 93.1035 452.291 117.209 491.049 155.952C513.094 177.917 530.577 204.027 542.49 232.777C554.403 261.528 560.511 292.351 560.462 323.472H565.559C565.559 275.605 551.366 228.813 524.774 189.012C498.181 149.212 460.385 118.19 416.163 99.8697C371.941 81.5493 323.279 76.7531 276.332 86.0873C229.384 95.4214 186.258 118.467 152.407 152.31C118.556 186.153 95.5005 229.273 86.1552 276.218C76.8099 323.164 81.5948 371.827 99.9048 416.053C118.215 460.28 149.227 498.084 189.022 524.685C228.816 551.287 275.604 565.491 323.471 565.503C387.662 565.503 449.223 540.003 494.613 494.613C540.002 449.224 565.502 387.662 565.502 323.472H562.982Z" fill="white"/>
<path d="M466.25 323.472H463.73C463.743 355.911 452.508 387.35 431.938 412.433C411.367 437.516 382.736 454.69 350.923 461.028C319.109 467.366 286.082 462.477 257.47 447.192C228.857 431.908 206.43 407.175 194.01 377.208C181.59 347.241 179.946 313.894 189.358 282.85C198.77 251.807 218.655 224.988 245.625 206.963C272.595 188.938 304.981 180.824 337.264 184.002C369.547 187.18 399.729 201.454 422.666 224.391C435.699 237.388 446.035 252.832 453.082 269.835C460.129 286.839 463.748 305.066 463.73 323.472H468.827C468.827 294.737 460.307 266.647 444.344 242.754C428.381 218.861 405.692 200.238 379.145 189.239C352.599 178.24 323.387 175.359 295.203 180.961C267.02 186.562 241.13 200.395 220.807 220.71C200.485 241.024 186.642 266.909 181.029 295.09C175.416 323.272 178.285 352.484 189.274 379.035C200.262 405.586 218.877 428.283 242.763 444.255C266.65 460.228 294.737 468.759 323.471 468.771C362.007 468.771 398.964 453.462 426.213 426.213C453.462 398.964 468.77 362.008 468.77 323.472H466.25Z" fill="white"/>
<path d="M350.79 323.472H348.213C348.201 329.167 346.216 334.681 342.595 339.077C338.974 343.473 333.942 346.479 328.354 347.582C322.767 348.684 316.97 347.816 311.951 345.126C306.931 342.435 302.999 338.088 300.825 332.824C298.65 327.56 298.367 321.705 300.024 316.256C301.681 310.807 305.175 306.102 309.912 302.939C314.648 299.777 320.335 298.354 326.002 298.912C331.67 299.471 336.969 301.977 340.997 306.004C343.291 308.296 345.109 311.02 346.347 314.018C347.586 317.015 348.22 320.228 348.213 323.472H353.367C353.367 317.57 351.617 311.801 348.339 306.894C345.06 301.987 340.4 298.162 334.948 295.904C329.495 293.646 323.496 293.055 317.708 294.206C311.92 295.357 306.603 298.199 302.43 302.372C298.257 306.545 295.415 311.862 294.264 317.65C293.112 323.438 293.703 329.438 295.962 334.89C298.22 340.343 302.044 345.003 306.951 348.281C311.858 351.56 317.627 353.31 323.529 353.31C327.449 353.318 331.333 352.551 334.956 351.054C338.58 349.557 341.872 347.359 344.645 344.587C347.417 341.815 349.615 338.522 351.112 334.899C352.608 331.275 353.375 327.392 353.367 323.472H350.79Z" fill="white"/>
<path d="M326.106 2.92084H320.951V644.079H326.106V2.92084Z" fill="white"/>
<path d="M98.5076 99.653L549.81 550.955L553.418 547.347L102.116 96.0449" fill="white"/>
<path d="M549.81 96.0449L98.5076 547.347L102.116 550.955L553.418 99.653" fill="white"/>
</g>
<defs>
<clipPath id="clip0_134_368">
<rect width="647" height="647" fill="white"/>
</clipPath>
</defs>
</svg>
