<svg width="1076" height="887" viewBox="0 0 1076 887" fill="none" xmlns="http://www.w3.org/2000/svg">
<g clip-path="url(#clip0_151_521)">
<path d="M884.614 842.39V840.367H53.145L227.889 751.147H1058.9L883.695 840.597L884.614 842.39V840.367V842.39L885.58 844.23L1076 747.054H226.923L36.043 844.46H885.12L885.58 844.23L884.614 842.39Z" fill="white"/>
<path d="M87.1191 842.39H85.0505C85.0603 851.766 81.8192 860.855 75.88 868.108C69.9409 875.361 61.6713 880.329 52.4804 882.165C43.2896 884.001 33.7464 882.592 25.478 878.177C17.2095 873.763 10.7274 866.616 7.13646 857.956C3.54555 849.296 3.06819 839.658 5.78566 830.685C8.50313 821.712 14.2473 813.959 22.039 808.749C29.8307 803.538 39.1878 801.192 48.515 802.111C57.8423 803.029 66.5623 807.155 73.1891 813.785C76.9547 817.534 79.9417 821.992 81.9774 826.902C84.0131 831.811 85.0575 837.075 85.0505 842.39H89.1876C89.1876 833.567 86.5727 824.942 81.6727 817.606C76.7726 810.27 69.8078 804.552 61.6593 801.176C53.5109 797.8 44.5447 796.916 35.8943 798.637C27.244 800.359 19.2981 804.607 13.0616 810.846C6.82499 817.085 2.57791 825.034 0.857249 833.687C-0.863416 842.341 0.0192053 851.31 3.39441 859.462C6.76962 867.613 12.4855 874.58 19.8189 879.482C27.1523 884.384 35.7741 887 44.594 887C56.421 887 67.7634 882.3 76.1264 873.934C84.4894 865.568 89.1876 854.221 89.1876 842.39H87.1191Z" fill="white"/>
<path d="M561.745 323.031C561.745 498.802 477.43 627.987 370.543 713.436C263.656 798.884 134.195 840.367 44.5938 840.367V844.46C135.391 844.46 265.264 802.701 373.117 716.655C480.97 630.608 565.837 500.182 565.837 323.031H561.745Z" fill="white"/>
<path d="M46.6625 842.39C46.6625 840.459 46.6625 838.435 46.6625 836.366L42.5254 836.136C42.5254 838.251 42.5254 840.367 42.5254 842.39H46.6625Z" fill="white"/>
<path d="M47.5821 828.364C48.0879 824.454 48.7773 820.499 49.6967 816.36L45.6511 815.486C44.7316 819.717 44.0422 823.81 43.4905 827.812L47.5821 828.364ZM51.6278 808.496C52.6852 804.725 53.8801 800.816 55.3053 796.907L51.3977 795.527C49.9725 799.528 48.7316 803.529 47.6742 807.438L51.6278 808.496ZM58.1556 789.318C59.6727 785.593 61.2821 781.868 63.0751 778.143L59.397 776.349C57.5581 780.213 55.8572 783.984 54.3401 787.755L58.1556 789.318ZM66.7531 770.923C68.5921 767.381 70.6145 763.84 72.7293 760.299L69.2353 758.183C67.0746 761.771 65.006 765.404 63.1211 768.991L66.7531 770.923ZM77.0971 753.401C79.3038 750.089 81.6939 746.732 84.0845 743.421L80.7746 740.983C78.2461 744.341 75.9018 747.744 73.6491 751.147L77.0971 753.401ZM89.0039 736.936C91.5325 733.809 94.1527 730.682 96.8652 727.738L93.7848 725.025C91.0264 728.091 88.36 731.264 85.7855 734.545L89.0039 737.074V736.936ZM102.382 721.622C105.141 718.724 108.036 715.827 111.025 712.976L108.174 709.986C105.14 712.884 102.198 715.827 99.3939 718.77L102.382 721.622ZM117.047 707.503C120.036 704.836 123.162 702.214 126.242 699.685L123.667 696.42C120.388 699.056 117.216 701.724 114.151 704.422L117.047 707.503ZM132.862 694.718C136.08 692.327 139.39 690.119 142.838 687.682L140.54 684.278C137.092 686.578 133.69 688.877 130.38 691.407L132.862 694.718ZM149.688 683.313C153.09 681.197 156.63 679.127 160.216 677.15L158.239 673.563C154.561 675.586 151.022 677.656 147.528 679.817L149.688 683.313ZM167.434 673.333C171.02 671.493 174.652 669.746 178.421 668.044L176.72 664.273C172.92 666.02 169.196 667.814 165.549 669.654L167.434 673.333ZM185.823 664.825C189.501 663.261 193.317 661.789 197.179 660.226L195.799 656.363C191.846 657.788 188.03 659.26 184.214 660.962L185.823 664.825ZM204.902 657.742C208.718 656.501 212.626 655.305 216.579 654.201L215.476 650.246C211.43 651.35 207.476 652.592 203.615 653.833L204.902 657.742ZM224.44 652.132C228.348 651.166 232.348 650.246 236.393 649.418L235.566 645.371C231.475 646.245 227.429 647.165 223.475 648.131L224.44 652.132ZM244.393 647.855C248.346 647.165 252.392 646.521 256.484 645.969L255.886 641.876C251.748 642.474 247.703 643.118 243.657 643.808L244.393 647.855ZM264.575 644.957C268.575 644.497 272.62 644.129 276.712 643.808L276.436 639.714C272.253 640.036 268.161 640.404 264.115 640.864L264.575 644.957ZM284.895 643.302C288.895 643.072 292.987 642.934 297.124 642.842V638.749C292.941 638.749 288.803 638.979 284.757 639.163L284.895 643.302ZM305.261 642.796C309.398 642.796 313.444 642.796 317.49 643.026V638.933C313.398 638.933 309.261 638.933 305.123 638.657L305.261 642.796ZM325.627 643.486C329.719 643.716 333.811 644.083 337.81 644.497L338.224 640.404C334.178 639.99 330.041 639.622 325.903 639.347L325.627 643.486ZM345.902 645.417C349.993 645.923 353.993 646.521 357.992 647.165L358.682 643.118C354.637 642.428 350.545 641.83 346.453 641.324L345.902 645.417ZM366.038 648.59C370.083 649.372 374.037 650.2 377.991 651.074L378.91 647.073C374.91 646.153 370.865 645.325 366.819 644.543L366.038 648.59ZM385.944 653.189C389.898 654.155 393.852 655.259 397.759 656.363L398.863 652.408C394.955 651.258 390.955 650.2 386.955 649.188L385.944 653.189ZM405.575 658.708C409.482 659.95 413.344 661.238 417.206 662.571L418.585 658.708C414.677 657.328 410.724 656.041 406.77 654.799L405.575 658.708ZM424.883 665.377C428.745 666.756 432.56 668.274 436.33 669.976L437.894 666.158C434.078 664.595 430.216 663.123 426.354 661.559L424.883 665.377ZM443.87 672.919C447.64 674.528 451.364 676.138 455.088 677.84L456.789 674.115C453.049 672.398 449.279 670.742 445.479 669.148L443.87 672.919ZM462.489 681.289C466.213 683.037 469.845 684.784 473.523 686.624L475.361 682.945C471.684 681.105 467.96 679.311 464.282 677.564L462.489 681.289ZM480.878 690.487C484.51 692.326 488.142 694.258 491.728 696.144L493.659 692.556C490.073 690.579 486.441 688.693 482.763 686.808L480.878 690.487ZM498.946 700.053L509.704 706.031L511.726 702.444C508.14 700.421 504.509 698.397 500.923 696.465L498.946 700.053ZM516.829 710.032L527.495 716.195L529.564 712.654L518.852 706.491L516.829 710.032ZM534.575 720.334L545.149 726.589L547.263 723.047L536.644 716.793L534.575 720.334ZM552.183 730.82L562.756 737.12L564.871 733.579L554.297 727.279L552.183 730.82ZM569.836 741.305L580.41 747.606L582.525 744.065L571.951 737.764L569.836 741.305ZM587.49 751.791L598.156 757.999L600.224 754.412L589.605 748.25L587.49 751.791ZM605.281 762.093L616.039 768.163L618.016 764.576L607.304 758.505L605.281 762.093ZM623.211 772.118L634.06 778.005L635.992 774.372L625.188 768.531L623.211 772.118ZM641.6 781.822C645.232 783.708 648.864 785.593 652.588 787.433L654.427 783.754L643.485 778.189L641.6 781.822ZM659.989 791.02C663.667 792.814 667.391 794.607 671.161 796.355L672.862 792.63L661.782 787.341L659.989 791.02ZM678.655 799.758C682.379 801.46 686.148 803.069 689.964 804.725L691.573 800.908C687.803 799.298 684.034 797.688 680.31 795.987L678.655 799.758ZM697.55 807.852C701.365 809.416 705.181 810.933 709.043 812.451L710.514 808.588C706.698 807.116 702.882 805.645 699.113 803.989L697.55 807.806V807.852ZM716.766 815.303L728.443 819.396L729.731 815.486C725.869 814.153 722.007 812.819 718.191 811.393L716.766 815.303ZM736.259 821.971C740.166 823.167 744.12 824.408 748.074 825.558L749.223 821.603C745.27 820.469 741.362 819.273 737.5 818.016L736.259 821.971ZM756.027 827.812C759.935 828.869 763.935 829.927 767.98 830.893L768.946 826.938C764.946 825.926 760.992 824.914 757.085 823.81L756.027 827.812ZM775.979 832.825C779.979 833.744 784.025 834.572 788.07 835.4L788.898 831.353C784.852 830.571 780.853 829.697 776.899 828.823L775.979 832.825ZM796.162 836.964C800.207 837.699 804.253 838.389 808.345 839.033L808.988 834.94C804.897 834.296 800.897 833.652 796.897 832.916L796.162 836.964ZM816.482 840.229C820.528 840.781 824.619 841.287 828.757 841.747L829.217 837.653C825.14 837.193 821.095 836.688 817.08 836.136L816.482 840.229ZM836.94 842.574C841.031 842.988 845.123 843.31 849.261 843.586L849.582 839.493C845.445 839.217 841.4 838.895 837.354 838.481L836.94 842.574ZM857.49 844.092C861.582 844.322 865.673 844.506 869.857 844.598V840.505C865.719 840.505 861.627 840.229 857.582 839.999L857.49 844.092Z" fill="white"/>
<path d="M878.454 844.414H884.66V840.321H878.5L878.454 844.414Z" fill="white"/>
<path d="M886.683 2.06958H882.545V842.436H886.683V2.06958Z" fill="white"/>
<path d="M977.066 0H884.614V4.13906H977.066V0Z" fill="white"/>
<path d="M977.066 320.961H884.614V325.054H977.066V320.961Z" fill="white"/>
<path d="M977.066 516.002H884.614V520.142H977.066V516.002Z" fill="white"/>
<path d="M977.066 638.611H884.614V642.75H977.066V638.611Z" fill="white"/>
</g>
<defs>
<clipPath id="clip0_151_521">
<rect width="1076" height="887" fill="white"/>
</clipPath>
</defs>
</svg>
