<svg width="695" height="1241" viewBox="0 0 695 1241" fill="none" xmlns="http://www.w3.org/2000/svg">
<g clip-path="url(#clip0_140_393)">
<path d="M3.57018 1090.59L5.95302 1090.59L5.95306 151.118L3.57022 151.118L3.57022 153.5C132.652 153.5 249.492 205.806 334.09 290.389C418.688 374.973 471.043 491.792 471.043 620.861C471.043 749.929 418.72 866.732 334.131 951.315C249.541 1035.9 132.694 1088.2 3.57018 1088.21L3.57018 1090.59L3.57018 1092.97C264.348 1092.97 475.76 881.577 475.76 620.861C475.76 360.144 264.389 148.744 3.57022 148.744L1.19565 148.744L1.19561 1092.97L3.57018 1092.97L3.57018 1090.59Z" fill="white"/>
<path d="M3.57009 1060.33L5.95293 1060.33L5.95297 181.383L3.57013 181.383L3.57013 183.757C124.271 183.757 233.552 232.67 312.677 311.774C391.803 390.877 440.773 500.139 440.782 620.852C440.79 741.566 391.844 850.827 312.718 929.939C233.593 1009.05 124.354 1057.95 3.57009 1057.95L3.57009 1060.33L3.57009 1062.7C247.602 1062.7 445.498 864.908 445.498 620.852C445.498 376.796 247.602 179 3.57013 179L1.19553 179L1.19549 1062.7L3.57009 1062.7L3.57009 1060.33Z" fill="white"/>
<path d="M3.56992 903.051L5.95273 903.051L5.95276 338.604L3.56995 338.604L3.56995 340.97C77.5395 341.371 148.343 371.031 200.506 423.469C252.669 475.906 281.951 546.857 281.951 620.815C281.951 694.773 252.669 765.724 200.506 818.162C148.343 870.599 77.5395 900.26 3.56992 900.66L3.56992 903.051L3.56992 905.434C160.769 905.434 288.175 778.049 288.175 620.877C288.175 463.705 160.819 336.205 3.56995 336.205L1.19534 336.205L1.19532 905.401L3.56992 905.401L3.56992 903.051Z" fill="white"/>
<path d="M3.56983 870.059L5.95266 870.059L5.95268 371.572L3.56985 371.572L3.56985 373.995C69.0539 373.995 131.856 400.004 178.16 446.3C224.464 492.597 250.478 555.388 250.478 620.861C250.478 686.333 224.464 749.124 178.16 795.421C131.856 841.717 69.0538 867.726 3.56983 867.726L3.56983 870.1L3.56983 872.483C142.553 872.483 255.202 759.853 255.202 620.902C255.202 481.95 142.602 369.197 3.56985 369.197L1.19525 369.197L1.19523 872.441L3.56983 872.441L3.56983 870.059Z" fill="white"/>
<path d="M375.271 484.456L375.271 482.074C337.251 482.074 300.407 468.894 271.018 444.778C241.628 420.662 221.511 387.104 214.094 349.821C206.678 312.538 212.421 273.837 230.345 240.313C248.269 206.788 277.264 180.516 312.391 165.97C347.518 151.425 386.602 149.508 422.984 160.546C459.366 171.583 490.794 194.893 511.914 226.502C533.034 258.111 542.538 296.064 538.807 333.894C535.076 371.724 518.341 407.09 491.453 433.966C476.214 449.245 458.105 461.361 438.166 469.619C418.227 477.876 396.853 482.112 375.271 482.082L375.271 486.838C468.652 486.838 544.343 411.16 544.343 317.795C544.343 224.43 468.628 148.744 375.271 148.744C281.914 148.744 206.191 224.422 206.191 317.787C206.191 411.152 281.89 486.83 375.271 486.83L375.271 484.456Z" fill="white"/>
<path d="M375.271 787.488L375.271 785.106C337.251 785.109 300.407 771.93 271.016 747.816C241.625 723.702 221.506 690.145 214.088 652.862C206.669 615.58 212.41 576.878 230.332 543.353C248.254 509.828 277.248 483.554 312.374 469.007C347.499 454.46 386.583 452.54 422.966 463.575C459.348 474.611 490.778 497.918 511.9 529.525C533.022 561.133 542.528 599.085 538.8 636.915C535.072 674.745 518.339 710.112 491.453 736.99C476.213 752.268 458.103 764.383 438.165 772.641C418.226 780.898 396.852 785.134 375.271 785.106L375.271 789.863C468.652 789.863 544.343 714.185 544.343 620.819C544.343 527.454 468.628 451.776 375.271 451.776C281.914 451.776 206.191 527.454 206.191 620.819C206.191 714.185 281.89 789.863 375.271 789.863L375.271 787.488Z" fill="white"/>
<path d="M375.271 1090.59L375.271 1088.21C337.251 1088.22 300.407 1075.04 271.015 1050.93C241.623 1026.82 221.502 993.26 214.082 955.978C206.661 918.696 212.4 879.994 230.319 846.468C248.239 812.942 277.231 786.666 312.356 772.117C347.481 757.568 386.565 755.646 422.948 766.679C459.331 777.712 490.762 801.017 511.886 832.623C533.009 864.229 542.518 902.18 538.793 940.01C535.067 977.841 518.337 1013.21 491.453 1040.09C476.212 1055.37 458.103 1067.48 438.164 1075.74C418.226 1084 396.853 1088.24 375.271 1088.21L375.271 1092.97C468.652 1092.97 544.343 1017.28 544.343 923.918C544.343 830.553 468.628 754.875 375.271 754.875C281.914 754.875 206.191 830.553 206.191 923.918C206.191 1017.28 281.89 1092.97 375.271 1092.97L375.271 1090.59Z" fill="white"/>
<path d="M5.99385 1090.59L5.99385 1060.33L5.99386 887.245L5.99386 870.059L5.99388 371.572L5.99388 354.402L5.99389 181.382L5.99389 151.126L5.9939 0.969421L1.2283 0.969421L1.23652 151.126L1.23652 181.382L1.23651 354.402L1.23651 371.572L1.23649 870.059L1.23648 887.245L1.23648 1060.33L1.23648 1090.59L1.23647 1240.68L5.99384 1240.68L5.99385 1090.59Z" fill="white"/>
<path d="M372.888 76.2943L372.888 90.5722L377.654 90.5722L377.654 76.2943L372.888 76.2943ZM372.888 100.118L372.888 114.396L377.654 114.396L377.654 100.085L372.888 100.118ZM372.888 123.942L372.888 138.212L377.654 138.212L377.654 123.885L372.888 123.942ZM372.888 147.766L372.888 162.044L377.654 162.044L377.654 147.676L372.888 147.766ZM372.888 171.59L372.888 185.868L377.654 185.868L377.654 171.467L372.888 171.59ZM372.888 195.414L372.888 209.684L377.654 209.684L377.654 195.266L372.888 195.414ZM372.888 219.238L372.888 233.516L377.654 233.516L377.654 219.057L372.888 219.238ZM372.888 243.062L372.888 257.34L377.654 257.34L377.654 242.848L372.888 243.062ZM372.888 266.886L372.888 281.164L377.654 281.164L377.654 266.648L372.888 266.886ZM372.888 290.71L372.888 304.988L377.654 304.988L377.654 290.447L372.888 290.71ZM372.888 314.534L372.888 328.812L377.654 328.812L377.654 314.238L372.888 314.534ZM372.888 338.358L372.888 352.307L377.654 352.307L377.654 338.037L372.888 338.358ZM372.888 362.182L372.888 376.46L377.654 376.46L377.654 361.828L372.888 362.182ZM372.888 386.006L372.888 400.284L377.654 400.284L377.654 385.62L372.888 386.006ZM372.888 409.83L372.888 423.697L377.654 423.697L377.654 409.419L372.888 409.83ZM372.888 433.654L372.888 447.931L377.654 447.931L377.654 433.21L372.888 433.654ZM372.888 457.478L372.888 471.764L377.654 471.764L377.654 456.968L372.888 457.478ZM372.888 481.301L372.888 495.579L377.654 495.579L377.654 480.792L372.888 481.301ZM372.888 505.125L372.888 519.395L377.654 519.395L377.654 504.616L372.888 505.125ZM372.888 528.949L372.888 543.227L377.654 543.227L377.654 528.391L372.888 528.949ZM372.888 552.773L372.888 567.051L377.654 567.051L377.654 552.182L372.888 552.773ZM372.888 576.597L372.888 590.875L377.654 590.875L377.654 575.981L372.888 576.597ZM372.888 600.421L372.888 614.699L377.654 614.699L377.654 600.421L372.888 600.421ZM372.888 624.245L372.888 638.515L377.654 638.515L377.654 623.572L372.888 624.245ZM372.888 648.069L372.888 662.347L377.654 662.347L377.654 648.069L372.888 648.069ZM372.888 671.893L372.888 686.171L377.654 686.171L377.654 671.893L372.888 671.893ZM372.888 695.717L372.888 709.987L377.654 709.987L377.654 695.717L372.888 695.717ZM372.888 719.541L372.888 732.997L377.654 732.997L377.654 718.719L372.888 719.541ZM372.888 743.365L372.888 756.821L377.654 756.821L377.654 742.543L372.888 743.365ZM372.888 767.189L372.888 780.645L377.654 780.645L377.654 766.367L372.888 767.189ZM372.888 791.013L372.888 805.291L377.654 805.291L377.654 791.013L372.888 791.013ZM372.888 814.837L372.888 829.107L377.654 829.107L377.654 814.837L372.888 814.837ZM372.888 838.661L372.888 852.93L377.654 852.93L377.654 838.661L372.888 838.661ZM372.888 862.485L372.888 876.763L377.654 876.763L377.654 862.485L372.888 862.485ZM372.888 886.309L372.888 900.595L377.654 900.595L377.654 885.306L372.888 886.309ZM372.888 910.133L372.888 924.411L377.654 924.411L377.654 910.133L372.888 910.133ZM372.888 933.957L372.888 948.226L377.654 948.226L377.654 933.957L372.888 933.957ZM372.888 957.781L372.888 972.058L377.654 972.058L377.654 956.696L372.888 957.781ZM372.888 981.604L372.888 995.882L377.654 995.882L377.654 981.604L372.888 981.604ZM372.888 1005.43L372.888 1019.71L377.654 1019.71L377.654 1005.43L372.888 1005.43ZM372.888 1029.25L372.888 1043.52L377.654 1043.52L377.654 1029.25L372.888 1029.25ZM372.888 1053.08L372.888 1067.35L377.654 1067.35L377.654 1053.08L372.888 1053.08ZM372.888 1076.9L372.888 1091.18L377.654 1091.18L377.654 1076.9L372.888 1076.9ZM372.888 1100.72L372.888 1115L377.654 1115L377.654 1100.72L372.888 1100.72ZM372.888 1124.55L372.888 1138.82L377.654 1138.82L377.654 1124.55L372.888 1124.55ZM372.888 1148.37L372.888 1162.65L377.654 1162.65L377.654 1147.04L372.888 1148.37Z" fill="white"/>
<path d="M694.608 623.243L694.608 618.478L3.61121 618.478L3.61121 623.243L694.608 623.243Z" fill="white"/>
</g>
<defs>
<clipPath id="clip0_140_393">
<rect width="1241" height="695" fill="white" transform="translate(695) rotate(90)"/>
</clipPath>
</defs>
</svg>
