<svg width="853" height="658" viewBox="0 0 853 658" fill="none" xmlns="http://www.w3.org/2000/svg">
<g clip-path="url(#clip0_218_650)">
<path d="M853 652.818H0V658.056H853V652.818Z" fill="white"/>
<path d="M752.736 329.028H755.326C755.337 263.948 736.057 200.326 699.923 146.209C663.789 92.0916 612.425 49.9106 552.327 25.0002C492.23 0.0898736 426.098 -6.43077 362.296 6.26305C298.494 18.9569 239.887 50.2948 193.889 96.3136C147.89 142.332 116.566 200.965 103.878 264.795C91.1896 328.626 97.7074 394.787 122.607 454.911C147.506 515.036 189.668 566.422 243.761 602.572C297.854 638.722 361.448 658.011 426.5 658C513.706 657.985 597.335 623.321 658.998 561.63C720.662 499.939 755.311 416.272 755.326 329.028H750.147C750.156 403.954 724.197 476.565 676.691 534.489C629.186 592.412 563.075 632.064 489.623 646.688C416.17 661.311 339.922 650.002 273.87 614.687C207.818 579.371 156.05 522.235 127.387 453.014C98.7232 383.793 94.9381 306.77 116.676 235.07C138.415 163.37 184.331 101.429 246.602 59.8018C308.873 18.1749 383.644 -0.562548 458.176 6.78247C532.708 14.1275 602.389 47.1003 655.344 100.083C685.443 130.114 709.313 165.801 725.582 205.091C741.852 244.381 750.2 286.5 750.147 329.028H752.736Z" fill="white"/>
<path d="M752.736 412.946H755.326C755.326 345.023 718.283 283.408 658.722 239.421C599.16 195.434 517.081 167.893 426.5 167.893C335.919 167.893 253.783 195.153 194.222 239.421C134.661 283.689 97.6174 345.023 97.6174 412.946C97.6174 480.87 134.717 542.485 194.222 586.472C253.727 630.459 335.863 658 426.5 658C517.137 658 599.16 630.74 658.722 586.472C718.283 542.203 755.326 480.87 755.326 412.946H750.147C750.147 478.899 714.173 538.768 655.625 582.304C597.077 625.84 516.067 652.818 426.5 652.818C336.933 652.818 255.866 626.066 197.318 582.304C138.77 538.543 102.853 478.899 102.853 412.946C102.853 346.994 138.77 287.125 197.318 243.589C255.866 200.053 336.933 173.075 426.5 173.075C516.067 173.075 597.077 200.053 655.625 243.589C714.173 287.125 750.147 346.994 750.147 412.946H752.736Z" fill="white"/>
<path d="M752.736 492.19H755.326C754.735 468.054 745.506 444.931 729.317 427.027C704.097 397.176 662.325 372.114 609.969 354.429C550.79 335.284 488.92 325.776 426.725 326.268C336.257 326.268 254.346 344.573 194.841 374.31C167.978 386.916 143.915 404.784 124.077 426.858C107.25 444.386 97.8525 467.747 97.8525 492.05C97.8525 516.353 107.25 539.714 124.077 557.242C149.354 587.092 191.069 612.154 243.481 629.839C302.66 648.989 364.53 658.497 426.725 658C517.137 658 599.048 639.696 658.553 609.958C685.405 597.334 709.464 579.468 729.317 557.41C745.592 539.518 754.902 516.373 755.551 492.19H750.372C749.766 515.189 740.868 537.192 725.32 554.144C701.056 582.924 660.073 607.705 608.28 625.165C549.643 644.106 488.341 653.481 426.725 652.931C336.989 652.931 255.753 634.683 197.149 605.396C170.932 593.102 147.444 575.674 128.074 554.144C111.978 537.54 102.977 515.32 102.977 492.19C102.977 469.061 111.978 446.84 128.074 430.237C152.394 401.513 193.377 376.732 245.114 359.216C303.78 340.323 365.096 330.967 426.725 331.506C516.461 331.506 597.697 349.754 656.245 379.041C682.447 391.336 705.931 408.741 725.32 430.237C740.838 447.208 749.73 469.199 750.372 492.19H752.736Z" fill="white"/>
<path d="M752.736 553.975H755.326C755.199 546.154 752.75 538.547 748.289 532.122C740.295 519.957 725.77 508.974 706.686 499.062C648.814 469.493 545.06 450.006 426.5 450.006C336.145 450.006 254.403 461.27 195.01 479.8C169.851 486.822 145.979 497.831 124.302 512.41C116.669 517.802 110.023 524.471 104.655 532.122C100.077 538.499 97.6147 546.152 97.6147 554.003C97.6147 561.854 100.077 569.507 104.655 575.884C112.705 587.993 127.173 599.032 146.257 608.888C204.186 638.513 307.94 658 426.5 658C516.574 658 598.541 646.736 657.934 628.206C683.093 621.184 706.965 610.175 728.642 595.596C736.301 590.235 742.952 583.561 748.289 575.884C752.76 569.443 755.21 561.815 755.326 553.975H750.147C750.024 560.796 747.868 567.425 743.954 573.011C736.748 583.994 723.181 594.639 704.547 604.27C648.251 633.219 544.666 652.818 426.725 652.818C336.651 652.818 255.472 641.554 196.755 623.25C172.161 616.376 148.823 605.615 127.623 591.372C120.477 586.375 114.265 580.161 109.271 573.011C105.249 567.49 103.081 560.835 103.081 554.003C103.081 547.171 105.249 540.516 109.271 534.995C116.477 523.73 130.044 513.367 148.678 503.736C204.974 474.787 308.616 455.187 426.556 455.187C516.63 455.187 597.753 466.452 656.47 484.756C681.064 491.629 704.403 502.391 725.602 516.634C732.763 521.631 738.994 527.845 744.01 534.995C747.913 540.566 750.069 547.173 750.203 553.975H752.736Z" fill="white"/>
<path d="M752.736 609.958H755.326C755.294 607.708 754.522 605.53 753.13 603.762C749.678 599.711 745.292 596.56 740.351 594.582C725.691 588.5 710.395 584.08 694.751 581.403C635.471 569.576 537.46 561.916 426.5 561.86C349.256 561.322 272.059 565.838 195.404 575.377C171.583 578.275 148.045 583.154 125.034 589.964C118.122 592.028 111.515 595.001 105.386 598.806C103.22 600.166 101.314 601.902 99.7568 603.932C98.3401 605.685 97.5674 607.872 97.5674 610.127C97.5674 612.382 98.3401 614.569 99.7568 616.322C103.215 620.355 107.6 623.486 112.536 625.446C127.196 631.543 142.491 635.982 158.136 638.682C217.416 650.509 315.428 658.169 426.444 658.169C503.589 658.768 580.691 654.328 657.258 644.877C681.079 641.979 704.617 637.1 727.628 630.29C734.54 628.226 741.147 625.252 747.276 621.447C749.429 620.071 751.333 618.338 752.905 616.322C754.297 614.554 755.069 612.377 755.101 610.127H749.922C749.847 611.255 749.435 612.334 748.74 613.224C745.762 616.535 742.064 619.118 737.931 620.772C723.639 626.653 708.743 630.94 693.513 633.557C634.852 645.271 536.953 652.987 426.275 652.987C349.279 653.604 272.325 649.164 195.911 639.695C172.561 636.768 149.494 631.908 126.948 625.165C120.487 623.266 114.314 620.5 108.595 616.942C106.952 615.908 105.503 614.593 104.317 613.056C103.561 612.201 103.144 611.099 103.144 609.958C103.144 608.817 103.561 607.715 104.317 606.86C107.272 603.524 110.977 600.938 115.126 599.313C129.397 593.43 144.275 589.143 159.487 586.528C218.148 574.813 316.047 567.098 426.782 567.098C503.759 566.48 580.693 570.92 657.089 580.389C680.605 583.234 703.842 588.038 726.559 594.751C733.02 596.65 739.193 599.416 744.911 602.974C746.57 604.009 748.037 605.324 749.246 606.86C749.942 607.751 750.354 608.83 750.428 609.958H752.736Z" fill="white"/>
</g>
<defs>
<clipPath id="clip0_218_650">
<rect width="853" height="658" fill="white"/>
</clipPath>
</defs>
</svg>
