<svg width="1159" height="1002" viewBox="0 0 1159 1002" fill="none" xmlns="http://www.w3.org/2000/svg">
<path d="M550.3 581.33H547.109C547.106 605.498 538.724 628.917 523.39 647.597C508.056 666.278 486.72 679.064 463.016 683.776C439.312 688.489 414.707 684.837 393.394 673.442C372.081 662.047 355.378 643.615 346.131 621.286C336.885 598.957 335.666 574.113 342.684 550.986C349.701 527.859 364.521 507.881 384.617 494.456C404.713 481.031 428.842 474.989 452.893 477.36C476.945 479.73 499.43 490.367 516.518 507.458C526.231 517.149 533.934 528.664 539.184 541.341C544.434 554.019 547.127 567.608 547.109 581.33H553.476C553.473 559.41 546.97 537.984 534.79 519.76C522.611 501.536 505.3 487.333 485.048 478.947C464.797 470.56 442.513 468.368 421.015 472.646C399.517 476.924 379.771 487.481 364.272 502.981C348.774 518.481 338.22 538.229 333.945 559.728C329.669 581.226 331.865 603.51 340.254 623.76C348.643 644.011 362.848 661.319 381.074 673.497C399.299 685.674 420.726 692.174 442.646 692.174C457.202 692.174 471.615 689.307 485.062 683.736C498.509 678.166 510.728 670.001 521.02 659.708C531.311 649.415 539.475 637.195 545.044 623.747C550.612 610.299 553.478 595.885 553.476 581.33H550.3Z" fill="white"/>
<path d="M566.444 581.329H563.209C563.213 609.24 553.538 636.288 535.834 657.865C518.13 679.442 493.492 694.212 466.118 699.66C438.744 705.107 410.328 700.894 385.713 687.739C361.097 674.584 341.804 653.3 331.122 627.515C320.44 601.73 319.029 573.038 327.13 546.329C335.23 519.62 352.342 496.546 375.548 481.039C398.755 465.533 426.62 458.552 454.396 461.288C482.172 464.023 508.14 476.305 527.876 496.041C539.095 507.227 547.993 520.521 554.056 535.158C560.12 549.795 563.231 565.486 563.209 581.329H569.562C569.565 556.212 562.119 531.658 548.166 510.773C534.214 489.887 514.381 473.609 491.176 463.995C467.971 454.382 442.437 451.866 417.802 456.765C393.167 461.665 370.539 473.76 352.778 491.52C335.018 509.281 322.923 531.909 318.023 556.544C313.124 581.179 315.64 606.713 325.253 629.918C334.867 653.123 351.145 672.956 372.031 686.908C392.916 700.861 417.47 708.307 442.588 708.304C476.263 708.304 508.56 694.926 532.372 671.114C556.184 647.301 569.562 615.005 569.562 581.329H566.444Z" fill="white"/>
<path d="M716.383 581.33H713.222C713.236 643.931 691.543 704.6 651.839 753C612.135 801.399 556.876 834.534 495.48 846.758C434.084 858.982 370.349 849.538 315.135 820.037C259.921 790.535 216.645 742.802 192.68 684.969C168.716 627.136 165.547 562.783 183.712 502.875C201.878 442.968 240.254 391.212 292.302 356.428C344.35 321.644 406.849 305.984 469.149 312.116C531.449 318.247 589.696 345.792 633.964 390.056C659.122 415.155 679.074 444.977 692.676 477.809C706.277 510.641 713.259 545.836 713.222 581.373H719.559C719.559 428.434 595.586 304.445 442.646 304.445C289.706 304.445 165.718 428.434 165.718 581.373C165.718 734.313 289.691 858.302 442.646 858.302C595.6 858.302 719.559 734.313 719.559 581.373L716.383 581.33Z" fill="white"/>
<path d="M857.877 581.33H854.701C854.701 676.66 821.646 769.042 761.169 842.733C700.692 916.425 616.535 966.867 523.036 985.466C429.537 1004.06 332.482 989.668 248.407 944.73C164.333 899.792 98.4409 827.093 61.9585 739.019C25.4761 650.946 20.6605 552.947 48.3323 461.721C76.0041 370.495 134.451 291.686 213.715 238.721C292.978 185.757 388.154 161.915 483.026 171.257C577.898 180.599 666.596 222.548 734.006 289.955C772.329 328.175 802.72 373.593 823.433 423.597C844.146 473.601 854.772 527.205 854.701 581.33H861.053C861.053 350.259 673.703 162.922 442.631 162.922C211.56 162.922 24.224 350.273 24.224 581.33C24.224 812.386 211.575 999.752 442.631 999.752C673.688 999.752 861.053 812.401 861.053 581.33H857.877Z" fill="white"/>
<path d="M1158.93 785.893C1155.75 785.893 1152.59 785.893 1149.43 785.893V792.246C1152.62 792.246 1155.81 792.246 1159 792.246L1158.93 785.893Z" fill="white"/>
<path d="M1136.74 785.586C1130.38 785.41 1124.03 785.166 1117.71 784.854L1117.4 791.192C1123.76 791.514 1130.16 791.763 1136.58 791.938L1136.74 785.586ZM1105.03 784.122C1098.68 783.703 1092.34 783.215 1086.01 782.659L1085.44 788.982C1091.79 789.557 1098.16 790.045 1104.57 790.445L1105.03 784.122ZM1073.4 781.415C1067.08 780.751 1060.78 780.014 1054.49 779.204L1053.69 785.498C1060.01 786.318 1066.35 787.064 1072.72 787.738L1073.4 781.415ZM1041.92 777.477C1035.62 776.57 1029.34 775.594 1023.1 774.55L1022.04 780.814C1028.34 781.878 1034.66 782.854 1041 783.742L1041.92 777.477ZM1010.6 772.31C1004.35 771.159 998.127 769.925 991.921 768.607L990.604 774.843C996.868 776.145 1003.13 777.389 1009.44 778.546L1010.6 772.31ZM979.524 765.9C973.318 764.494 967.141 763.031 960.993 761.509L959.442 767.685C965.648 769.237 971.854 770.73 978.104 772.076L979.524 765.9ZM948.786 758.288C942.639 756.63 936.526 754.907 930.447 753.122L928.661 759.211C934.779 761.026 940.936 762.762 947.132 764.421L948.786 758.288ZM918.254 749.433C912.155 747.53 906.096 745.579 900.075 743.578L898.041 749.609C904.11 751.658 910.218 753.639 916.366 755.551L918.254 749.433ZM888.029 739.348C882.028 737.211 876.056 735.006 870.114 732.733L867.83 738.675C873.831 740.958 879.857 743.178 885.907 745.335L888.029 739.348ZM858.258 728.078C852.403 725.721 846.461 723.263 840.694 720.76L838.191 726.614C844.045 729.132 849.969 731.571 855.96 733.933L858.258 728.078ZM828.984 715.651C823.13 713.046 817.353 710.377 811.654 707.645L808.917 713.383C814.772 716.134 820.524 718.828 826.393 721.462L828.984 715.651ZM800.223 702.083C794.515 699.244 788.85 696.36 783.23 693.389L780.302 699.024C785.981 702.01 791.69 704.937 797.427 707.806L800.252 702.112L800.223 702.083ZM772.018 687.446C766.427 684.382 760.879 681.265 755.376 678.093L752.2 683.597C757.752 686.807 763.338 689.944 768.959 693.008L772.018 687.446ZM744.427 671.653C738.953 668.389 733.552 665.052 728.181 661.671L724.785 667.043C730.201 670.448 735.655 673.805 741.149 677.113L744.427 671.653ZM717.481 654.792C712.153 651.328 706.874 647.79 701.644 644.18L698.043 649.42C703.313 653.05 708.636 656.611 714.012 660.105L717.481 654.792ZM691.12 636.832C685.939 633.163 680.806 629.421 675.722 625.606L671.917 630.699C677.04 634.534 682.211 638.306 687.432 642.014L691.12 636.832ZM665.667 617.936C660.632 614.033 655.65 610.091 650.723 606.11L646.639 611.072C651.616 615.102 656.636 619.073 661.7 622.986L665.579 617.951L665.667 617.936ZM640.784 598.045C635.905 593.956 631.08 589.824 626.308 585.647L622.122 590.434C626.943 594.649 631.822 598.811 636.759 602.919L640.784 598.045ZM616.824 577.217C612.111 572.943 607.451 568.625 602.846 564.263L598.455 568.874C603.09 573.274 607.783 577.626 612.535 581.93L616.824 577.217ZM593.771 555.452C589.234 551.022 584.75 546.528 580.32 541.971L575.768 546.362C580.227 550.948 584.745 555.476 589.321 559.945L593.771 555.452ZM571.523 532.823C567.161 528.208 562.853 523.544 558.599 518.831L553.886 523.09C558.16 527.852 562.497 532.55 566.898 537.185L571.523 532.794V532.823ZM550.182 509.404C545.996 504.633 541.874 499.812 537.814 494.943L532.94 498.998C537.039 503.876 541.191 508.755 545.396 513.634L550.182 509.404ZM529.779 485.137C525.798 480.189 521.86 475.227 517.996 470.192L512.961 474.071C516.864 479.135 520.821 484.151 524.832 489.118L529.779 485.137ZM510.341 460.078C506.555 454.995 502.828 449.867 499.159 444.695L493.963 448.384C497.671 453.594 501.432 458.761 505.248 463.884L510.341 460.078ZM491.899 434.303C488.327 429.083 484.805 423.813 481.331 418.495L476.018 421.964C479.501 427.321 483.048 432.629 486.659 437.889L491.899 434.303ZM474.496 407.825C471.11 402.468 467.797 397.067 464.557 391.622L459.098 394.886C462.376 400.38 465.714 405.825 469.109 411.221L474.496 407.825ZM458.146 380.703C455.004 375.229 451.906 369.691 448.852 364.09L443.275 367.135C446.33 372.745 449.452 378.312 452.643 383.835L458.146 380.703ZM442.88 352.966C439.953 347.356 437.074 341.72 434.244 336.061L428.551 338.827C431.39 344.555 434.288 350.239 437.245 355.879L442.88 352.952V352.966ZM428.712 324.673C425.989 318.945 423.335 313.198 420.749 307.431L414.895 310.022C417.5 315.877 420.174 321.668 422.916 327.396L428.712 324.673ZM415.685 295.839C413.182 289.984 410.767 284.129 408.367 278.275L402.512 280.631C404.883 286.564 407.323 292.458 409.83 298.313L415.685 295.795V295.839ZM403.771 266.492C401.517 260.637 399.306 254.622 397.184 248.635L391.198 250.772C393.344 256.803 395.559 262.804 397.843 268.775L403.771 266.492ZM393.013 236.633C390.993 230.632 389.041 224.597 387.158 218.527L381.098 220.415C383.001 226.534 384.977 232.618 387.026 238.668L393.013 236.633ZM383.455 206.379C381.669 200.3 379.947 194.191 378.288 188.054L372.155 189.707C373.824 195.884 375.556 202.041 377.351 208.179L383.455 206.393V206.379ZM375.097 175.773C373.546 169.626 372.082 163.454 370.706 157.258L364.515 158.721C365.92 164.966 367.384 171.192 368.906 177.398L375.097 175.773ZM367.954 144.846C366.637 138.659 365.403 132.434 364.251 126.169L358.001 127.325C359.172 133.639 360.416 139.918 361.734 146.163L367.954 144.846ZM362.027 113.669C360.973 107.424 359.997 101.155 359.099 94.8611L352.805 95.7686C353.723 102.111 354.698 108.454 355.733 114.796L362.027 113.669ZM357.343 82.2881C356.533 75.9942 355.791 69.6907 355.118 63.3773L348.809 64.036C349.483 70.4176 350.229 76.7602 351.049 83.0638L357.343 82.2881ZM353.903 50.6872C353.337 44.3836 352.849 38.041 352.439 31.6594L346.102 32.0839C346.531 38.485 347.019 44.8618 347.565 51.2142L353.903 50.6872ZM351.693 19.0278C351.371 12.7047 351.122 6.36213 350.946 0L344.594 0.175657C344.77 6.57682 345.019 12.9633 345.341 19.3352L351.693 19.0278Z" fill="white"/>
<path d="M567.073 707.85L564.834 705.611C476.428 794.032 385.606 866.484 304.372 916.776C223.138 967.068 151.403 995.126 101.872 995.068C78.5703 995.068 60.4353 988.979 48.0526 976.596C35.6699 964.214 29.581 946.064 29.5664 922.835C29.5664 873.304 57.5373 801.526 107.859 720.335C158.18 639.145 230.617 548.294 319.038 459.8C407.459 371.306 498.251 298.927 579.485 248.635C660.72 198.343 732.455 170.284 781.985 170.343C805.287 170.343 823.422 176.432 835.82 188.815C848.217 201.197 854.277 219.362 854.291 242.649C854.291 292.18 826.32 363.959 775.999 445.149C725.678 526.339 653.24 617.19 564.834 705.684L567.073 707.923L569.327 710.163C658.041 621.317 730.786 530.247 781.4 448.501C832.014 366.754 860.585 294.463 860.644 242.649C860.644 218.308 854.233 198.241 840.313 184.336C826.393 170.431 806.326 163.976 781.985 163.991C730.186 163.991 657.924 192.635 576.134 243.234C494.343 293.834 403.273 366.637 314.545 455.321C225.816 544.006 153.072 635.164 102.458 716.91C51.8436 798.657 23.2725 870.948 23.214 922.835C23.214 947.176 29.6395 967.243 43.5591 981.163C57.4787 995.082 77.5311 1001.51 101.872 1001.49C153.686 1001.49 225.934 972.835 307.724 922.25C389.514 871.665 480.599 798.891 569.327 710.163L567.073 707.85Z" fill="white"/>
<path d="M726 805.873H722.824C722.824 810.036 721.589 814.105 719.276 817.566C716.964 821.027 713.676 823.725 709.83 825.318C705.984 826.911 701.753 827.328 697.67 826.516C693.587 825.704 689.836 823.699 686.893 820.756C683.949 817.812 681.945 814.062 681.133 809.979C680.32 805.896 680.737 801.664 682.33 797.818C683.923 793.972 686.621 790.685 690.082 788.372C693.544 786.059 697.613 784.825 701.776 784.825C707.356 784.833 712.705 787.053 716.65 790.998C720.596 794.944 722.816 800.293 722.824 805.873H729.176C729.176 800.453 727.569 795.156 724.558 790.65C721.547 786.144 717.268 782.632 712.261 780.558C707.255 778.484 701.745 777.942 696.43 778.999C691.115 780.056 686.233 782.666 682.401 786.498C678.569 790.33 675.959 795.212 674.902 800.527C673.845 805.842 674.388 811.352 676.461 816.358C678.535 821.365 682.047 825.644 686.553 828.655C691.059 831.666 696.357 833.273 701.776 833.273C709.043 833.273 716.012 830.386 721.151 825.247C726.289 820.109 729.176 813.14 729.176 805.873H726Z" fill="white"/>
<path d="M805.141 243.688H801.95C801.95 247.852 800.715 251.921 798.402 255.383C796.088 258.845 792.8 261.542 788.953 263.135C785.107 264.728 780.874 265.144 776.791 264.33C772.707 263.517 768.957 261.511 766.014 258.566C763.071 255.621 761.068 251.869 760.257 247.785C759.447 243.701 759.866 239.469 761.461 235.623C763.056 231.778 765.756 228.491 769.219 226.18C772.683 223.869 776.753 222.637 780.917 222.64C786.497 222.644 791.846 224.863 795.79 228.81C799.735 232.757 801.95 238.108 801.95 243.688H808.302C808.305 238.268 806.7 232.968 803.691 228.46C800.681 223.952 796.402 220.438 791.395 218.362C786.387 216.286 780.877 215.742 775.56 216.799C770.244 217.856 765.36 220.466 761.528 224.299C757.695 228.131 755.085 233.015 754.028 238.332C752.971 243.648 753.515 249.158 755.591 254.166C757.666 259.173 761.181 263.452 765.689 266.462C770.197 269.471 775.496 271.076 780.917 271.073C788.18 271.073 795.146 268.188 800.281 263.052C805.417 257.917 808.302 250.951 808.302 243.688H805.141Z" fill="white"/>
<path d="M51.624 581.33H48.4478C48.4478 585.492 47.2134 589.562 44.9006 593.023C42.5879 596.484 39.3007 599.182 35.4547 600.775C31.6087 602.368 27.3767 602.785 23.2939 601.973C19.211 601.161 15.4607 599.156 12.5171 596.213C9.57354 593.269 7.56894 589.519 6.7568 585.436C5.94467 581.353 6.36148 577.121 7.95453 573.275C9.54758 569.429 12.2453 566.142 15.7066 563.829C19.1679 561.516 23.2372 560.282 27.4001 560.282C32.9799 560.29 38.329 562.51 42.2745 566.455C46.22 570.401 48.4401 575.75 48.4478 581.33H54.8002C54.8002 575.91 53.1932 570.613 50.1824 566.107C47.1717 561.601 42.8923 558.089 37.8856 556.015C32.8789 553.941 27.3697 553.399 22.0546 554.456C16.7395 555.513 11.8573 558.123 8.02531 561.955C4.19334 565.787 1.58373 570.669 0.526497 575.984C-0.530742 581.299 0.0118736 586.808 2.08572 591.815C4.15957 596.822 7.6715 601.101 12.1774 604.112C16.6833 607.123 21.9809 608.73 27.4001 608.73C34.667 608.73 41.6364 605.843 46.7749 600.704C51.9134 595.566 54.8002 588.596 54.8002 581.33H51.624Z" fill="white"/>
<path d="M445.105 556.374H438.753V606.3H445.105V556.374Z" fill="white"/>
<path d="M464.865 578.168H419.008V584.52H464.865V578.168Z" fill="white"/>
<path d="M423.472 567.366L455.892 599.787L460.401 595.293L427.965 562.873" fill="white"/>
<path d="M455.907 562.873L423.472 595.293L427.965 599.801L460.386 567.366" fill="white"/>
</svg>
