<svg width="1585" height="608" viewBox="0 0 1585 608" fill="none" xmlns="http://www.w3.org/2000/svg">
<g clip-path="url(#clip0_151_501)">
<path d="M1094.3 304H1091.89C1091.87 373.215 1067.84 440.283 1023.9 493.777C979.947 547.272 918.798 583.882 850.868 597.371C782.937 610.86 712.428 600.392 651.354 567.752C590.28 535.112 542.42 482.319 515.929 418.367C489.437 354.416 485.953 283.263 506.07 217.032C526.187 150.801 568.661 93.5902 626.254 55.1467C683.847 16.7032 752.996 -0.594204 821.92 6.20174C890.844 12.9977 955.277 43.4665 1004.24 92.4168C1032.07 120.178 1054.15 153.161 1069.19 189.471C1084.23 225.78 1091.94 264.702 1091.89 304H1096.72C1096.73 243.859 1078.89 185.066 1045.47 135.057C1012.04 85.0471 964.523 46.0674 908.927 23.0477C853.331 0.0279639 792.154 -5.99787 733.131 5.7324C674.108 17.4627 619.892 46.422 577.34 88.9479C534.787 131.474 505.809 185.656 494.072 244.642C482.334 303.627 488.364 364.767 511.398 420.327C534.432 475.888 573.436 523.374 623.477 556.78C673.518 590.186 732.348 608.01 792.527 608C832.478 608.007 872.04 600.149 908.952 584.875C945.864 569.6 979.404 547.209 1007.66 518.979C1035.91 490.75 1058.32 457.234 1073.61 420.348C1088.9 383.462 1096.77 343.926 1096.77 304H1094.3Z" fill="white"/>
<path d="M1280.81 304H1278.45C1277.9 345.647 1264.66 386.136 1240.47 420.057C1204.05 473.663 1142.2 519.496 1064.59 552.143C986.971 584.789 893.37 603.497 792.527 603.497C658.052 603.497 536.397 569.779 448.482 515.476C404.497 488.351 369.041 456.027 344.528 420.325C319.883 386.641 306.6 345.996 306.6 304.268C306.6 262.54 319.883 221.895 344.528 188.211C381.271 134.605 442.796 88.7181 520.413 56.34C598.029 23.962 691.684 5.03898 792.527 5.03898C926.948 5.03898 1048.66 38.7036 1136.52 93.0066C1180.5 120.185 1216.01 152.456 1240.47 188.211C1264.66 222.132 1277.9 262.621 1278.45 304.268H1283.22C1282.72 261.646 1269.18 220.197 1244.44 185.477C1206.89 130.852 1144.73 84.5904 1066.46 51.9443C988.205 19.2982 893.96 0 792.527 0C657.248 0 535.056 33.8255 445.961 88.6645C401.547 116.111 365.501 148.811 340.559 185.155C315.358 219.633 301.777 261.224 301.777 303.92C301.777 346.616 315.358 388.206 340.559 422.684C378.107 477.309 440.275 523.571 518.535 556.27C596.796 588.97 691.094 607.946 792.527 607.946C927.753 607.946 1050 574.121 1139.04 519.228C1183.45 491.836 1219.5 459.082 1244.44 422.737C1269.17 388.032 1282.7 346.604 1283.22 304H1280.81Z" fill="white"/>
<path d="M1582.59 304H1580.23C1580.23 344.741 1558.77 383.766 1518.92 419.628C1459.43 473.234 1359.5 519.336 1233.66 551.767C1107.82 584.199 955.967 603.229 792.527 603.229C574.589 603.229 377.302 569.457 234.674 515.047C163.387 487.815 105.938 455.384 66.0838 419.628C26.2295 383.873 4.82738 344.58 4.82738 304C4.82738 263.42 26.2832 224.181 66.0838 188.372C125.57 134.766 225.501 88.6645 351.34 56.1792C477.179 23.6939 629.033 4.77102 792.527 4.77102C1010.41 4.77102 1207.75 38.4891 1350.38 92.9529C1421.67 120.185 1479.12 152.563 1518.97 188.372C1558.82 224.181 1580.28 263.42 1580.28 304H1584.89C1584.89 261.437 1562.31 221.125 1522.03 184.78C1461.57 130.263 1361.11 84.1615 1234.73 51.569C1108.36 18.9765 956.343 0 792.527 0C574.052 0 376.336 33.7718 232.957 88.45C161.295 115.843 103.203 148.435 62.8656 184.941C22.5285 221.447 0 261.598 0 304.161C0 346.724 22.5822 386.982 62.8656 423.327C123.371 477.844 223.785 523.999 350.16 556.592C476.535 589.184 628.657 608.161 792.527 608.161C1010.95 608.161 1208.72 574.389 1352.04 519.657C1423.71 492.265 1481.8 459.672 1522.13 423.166C1562.47 386.661 1584.89 346.51 1584.89 304H1582.59Z" fill="white"/>
<path d="M1582.59 301.588H2.41382V306.359H1582.59V301.588Z" fill="white"/>
<path d="M794.941 2.41235H790.113V605.641H794.941V2.41235Z" fill="white"/>
</g>
<defs>
<clipPath id="clip0_151_501">
<rect width="1585" height="608" fill="white"/>
</clipPath>
</defs>
</svg>
