<svg width="704" height="704" viewBox="0 0 704 704" fill="none" xmlns="http://www.w3.org/2000/svg">
<g clip-path="url(#clip0_150_466)">
<path d="M480.667 480.667V477.844H226.156V226.093H477.844L477.907 480.667H480.667V477.844V480.667H483.49V220.51H220.51V483.49H483.49V480.667H480.667Z" fill="white"/>
<path d="M628.594 628.594V625.771H78.2292V78.2292H625.771V628.594H628.594V625.771V628.594H631.354V72.6459H72.6459V631.354H631.354V628.594H628.594Z" fill="white"/>
<path d="M583.99 583.99V581.167H122.833V122.833H581.167V583.99H583.99V581.167V583.99H586.813V117.187H117.187V586.813H586.813V583.99H583.99Z" fill="white"/>
<path d="M539.449 539.449V536.626H167.374V167.374H536.626V539.449H539.449V536.626V539.449H542.209V161.791H161.791V542.209H542.209V539.449H539.449Z" fill="white"/>
<path d="M508.709 508.709V505.886H198.114V198.114H505.886V508.709H508.709V505.886V508.709H511.532V192.468H192.468V511.532H511.532V508.709H508.709Z" fill="white"/>
<path d="M225.277 221.325L3.95224 0L0 3.95224L221.325 225.277" fill="white"/>
<path d="M482.675 225.277L704 3.95224L700.048 0L478.723 221.325" fill="white"/>
<path d="M478.723 482.675L700.048 704L704 700.048L482.675 478.722" fill="white"/>
<path d="M221.325 478.722L0 700.048L3.95224 704L225.277 482.675" fill="white"/>
<path d="M256.205 479.224L117.626 700.55L122.394 703.498L260.973 482.173" fill="white"/>
<path d="M309.968 479.789L237.887 701.177L243.219 702.871L315.301 481.546" fill="white"/>
<path d="M354.76 480.667H349.177V701.992H354.76V480.667Z" fill="white"/>
<path d="M223.333 349.177H2.00745V354.823H223.333V349.177Z" fill="white"/>
<path d="M701.992 349.177H480.667V354.823H701.992V349.177Z" fill="white"/>
<path d="M354.76 2.00745H349.177V223.333H354.76V2.00745Z" fill="white"/>
<path d="M276.594 220.51V222.454L277.66 220.761C277.308 220.69 276.946 220.69 276.594 220.761V222.705L277.66 221.012C276.471 219.853 275.361 218.616 274.335 217.31C268.062 209.657 255.515 192.217 240.71 170.448C218.377 137.764 190.147 95.1675 167.563 61.0403C156.271 43.9139 146.359 28.8577 139.332 18.0675L127.977 0.690063L123.272 3.76416C123.272 3.76416 159.344 59.0954 196.232 114.489C214.675 142.155 233.37 169.821 247.862 190.586C255.139 201 261.349 209.406 265.992 215.679C268.313 218.753 270.195 221.2 271.764 222.894C272.369 223.643 273.041 224.336 273.771 224.964L274.775 225.717C275.332 226.096 275.983 226.313 276.656 226.344L276.594 220.51Z" fill="white"/>
<path d="M315.301 222.454L243.219 1.12915L237.887 2.8857L309.968 224.211" fill="white"/>
<path d="M394.283 224.211L470.504 2.88581L465.172 1.06653L388.95 222.392" fill="white"/>
<path d="M438.322 224.838L583.802 3.51305L579.097 0.439087L433.617 221.764" fill="white"/>
<path d="M482.173 260.848L703.498 120.888L700.487 116.183L479.162 256.143" fill="white"/>
<path d="M481.546 312.415L702.871 239.016L701.114 233.684L479.789 307.083" fill="white"/>
<path d="M479.789 394.22L701.114 466.238L702.871 460.906L481.546 388.825" fill="white"/>
<path d="M479.224 439.639L700.55 578.219L703.498 573.451L482.173 434.872" fill="white"/>
<path d="M388.95 481.608L465.172 702.934L470.504 701.114L394.283 479.789" fill="white"/>
<path d="M440.518 482.236L589.009 703.561L593.651 700.424L445.223 479.099" fill="white"/>
<path d="M221.89 440.392L0.564575 573.451L3.45034 578.219L224.776 445.223" fill="white"/>
<path d="M224.211 301.562L2.88581 228.101L1.06653 233.433L222.455 306.894" fill="white"/>
<path d="M224.838 256.143L3.51306 116.183L0.501831 120.888L221.827 260.848" fill="white"/>
<path d="M222.58 388.825L1.25464 449.363L2.69752 454.821L224.086 394.22" fill="white"/>
</g>
<defs>
<clipPath id="clip0_150_466">
<rect width="704" height="704" fill="white"/>
</clipPath>
</defs>
</svg>
